<svg width="150" height="150" viewBox="0 0 150 150" fill="none" xmlns="http://www.w3.org/2000/svg">
<g id="g10">
<g id="g12">
<g id="g14">
<g id="g16">
<g id="g22">
<path id="path30" fill-rule="evenodd" clip-rule="evenodd" d="M148.996 74.9096C148.996 95.246 141.757 112.716 127.304 127.304C112.851 141.757 95.3815 148.996 74.9097 148.996C54.5532 148.996 37.1386 141.757 22.6908 127.304C8.23798 112.716 0.999023 95.246 0.999023 74.9096C0.999023 54.4177 8.23798 37.0231 22.6908 22.6908C37.1386 8.23796 54.5532 0.999011 74.9097 0.999011C95.3815 0.999011 112.851 8.23796 127.304 22.6908C141.757 37.0231 148.996 54.4177 148.996 74.9096Z" fill="url(#paint0_radial_14_3)"/>
</g>
</g>
</g>
<g id="g32">
<g id="Mask group">
<mask id="mask0_14_3" style="mask-type:luminance" maskUnits="userSpaceOnUse" x="0" y="0" width="151" height="151">
<g id="Group">
<g id="g42">
<g id="Clip path group">
<mask id="mask1_14_3" style="mask-type:luminance" maskUnits="userSpaceOnUse" x="0" y="0" width="151" height="151">
<g id="clipPath36">
<path id="path38" d="M0 150.602H150.602V-9.53674e-07H0V150.602Z" fill="white"/>
</g>
</mask>
<g mask="url(#mask1_14_3)">
<g id="g44">
<path id="path46" d="M0 150.602H150.602V-9.53674e-07H0V150.602Z" fill="black" fill-opacity="0.5"/>
</g>
</g>
</g>
</g>
</g>
</mask>
<g mask="url(#mask0_14_3)">
<g id="g48">
<g id="g72">
<g id="Clip path group_2">
<mask id="mask2_14_3" style="mask-type:luminance" maskUnits="userSpaceOnUse" x="0" y="0" width="151" height="151">
<g id="clipPath52">
<path id="path54" d="M0 150.602H150.602V-9.53674e-07H0V150.602Z" fill="white"/>
</g>
</mask>
<g mask="url(#mask2_14_3)">
<g id="g74">
<g id="g76">
<g id="g80">
<g id="Clip path group_3">
<mask id="mask3_14_3" style="mask-type:luminance" maskUnits="userSpaceOnUse" x="0" y="0" width="151" height="151">
<g id="clipPath56">
<path id="path58" d="M0 150.602H150.602V-9.53674e-07H0V150.602Z" fill="white"/>
</g>
</mask>
<g mask="url(#mask3_14_3)">
<g id="g82">
<g id="g84">
<g id="g86">
<g id="g88">
<g id="g90">
<path id="path92" fill-rule="evenodd" clip-rule="evenodd" d="M149.995 74.9096C149.995 95.6576 142.701 113.323 128.112 127.912C113.384 142.641 95.6576 149.995 74.9096 149.995C54.2771 149.995 36.6115 142.641 21.8825 127.912C7.29418 113.323 0 95.6576 0 74.9096C0 54.2771 7.29418 36.6114 21.8825 21.8825C36.6115 7.29416 54.2771 -1.25479e-05 74.9096 -1.25479e-05C95.6576 -1.25479e-05 113.384 7.29416 128.112 21.8825C142.701 36.4759 149.995 54.1416 149.995 74.9096ZM126.501 23.2982C112.324 9.09638 95.1054 1.99798 74.9096 1.99798C54.8293 1.99798 37.6908 9.09638 23.494 23.2982C9.17671 37.4749 1.99799 54.6938 1.99799 74.9096C1.99799 94.99 9.17671 112.189 23.494 126.501C37.6908 140.838 54.8293 147.992 74.9096 147.992C95.1054 147.992 112.324 140.838 126.501 126.501C140.838 112.189 147.992 94.99 147.992 74.9096C147.992 54.6938 140.838 37.4749 126.501 23.2982Z" fill="url(#paint1_linear_14_3)"/>
</g>
</g>
</g>
</g>
</g>
</g>
</g>
</g>
</g>
</g>
</g>
</g>
</g>
</g>
</g>
</g>
</g>
<path id="path94" fill-rule="evenodd" clip-rule="evenodd" d="M36.3353 27.51C46.26 27.9066 47.515 32.6707 40.1606 41.7671C32.3946 51.5361 27.0432 54.8293 24.1014 51.6114C21.4156 48.7901 21.6114 44.1014 24.6887 37.5502C27.7861 30.7279 31.6516 27.3745 36.3353 27.51Z" fill="white"/>
<path id="path96" fill-rule="evenodd" clip-rule="evenodd" d="M20.2761 58.8303C22.8263 59.3775 23.6295 61.3203 22.6908 64.6536C21.747 68.007 20.3565 69.006 18.4739 67.6707C16.8625 66.5964 16.3354 64.7892 16.8625 62.239C17.5302 59.7139 18.6697 58.5743 20.2761 58.8303Z" fill="white"/>
<g id="g98">
<g id="Mask group_2">
<mask id="mask4_14_3" style="mask-type:luminance" maskUnits="userSpaceOnUse" x="20" y="65" width="121" height="76">
<g id="Group_2">
<g id="g108">
<g id="Clip path group_4">
<mask id="mask5_14_3" style="mask-type:luminance" maskUnits="userSpaceOnUse" x="20" y="65" width="121" height="76">
<g id="clipPath102">
<path id="path104" d="M20.0803 140.562H140.562V65.2611H20.0803V140.562Z" fill="white"/>
</g>
</mask>
<g mask="url(#mask5_14_3)">
<g id="g110">
<path id="path112" d="M20.0803 140.562H140.562V65.2611H20.0803V140.562Z" fill="black" fill-opacity="0.3398"/>
</g>
</g>
</g>
</g>
</g>
</mask>
<g mask="url(#mask4_14_3)">
<g id="g114">
<g id="g126">
<g id="Clip path group_5">
<mask id="mask6_14_3" style="mask-type:luminance" maskUnits="userSpaceOnUse" x="20" y="65" width="121" height="76">
<g id="clipPath118">
<path id="path120" d="M20.0803 140.562H140.562V65.2611H20.0803V140.562Z" fill="white"/>
</g>
</mask>
<g mask="url(#mask6_14_3)">
<g id="g128">
<g id="g130">
<g id="g134">
<g id="Clip path group_6">
<mask id="mask7_14_3" style="mask-type:luminance" maskUnits="userSpaceOnUse" x="20" y="65" width="121" height="76">
<g id="clipPath122">
<path id="path124" d="M20.0803 140.562H140.562V65.2611H20.0803V140.562Z" fill="white"/>
</g>
</mask>
<g mask="url(#mask7_14_3)">
<g id="g136">
<g id="g138">
<path id="path140" fill-rule="evenodd" clip-rule="evenodd" d="M138.956 65.6526C140.286 73.3032 139.483 81.7922 136.541 91.1647C130.798 110.05 117.344 123.971 96.1848 132.932C80.2611 139.759 63.1828 139.227 44.985 131.325C36.2952 127.62 29.0613 123.228 23.2982 118.168C27.5502 121.737 33.5141 124.719 41.1597 127.108C57.3595 132.053 75.0452 131.13 94.1868 124.307C111.441 118.148 124.091 106.481 132.129 89.3624C136.15 80.9287 138.424 73.0271 138.956 65.6526Z" fill="white"/>
</g>
</g>
</g>
</g>
</g>
</g>
</g>
</g>
</g>
</g>
</g>
</g>
</g>
</g>
</g>
</g>
<defs>
<radialGradient id="paint0_radial_14_3" cx="0" cy="0" r="1" gradientUnits="userSpaceOnUse" gradientTransform="translate(72.8906 73.6942) rotate(45) scale(61.7665)">
<stop stop-color="#FF9E9E"/>
<stop offset="1" stop-color="#FF6363"/>
</radialGradient>
<linearGradient id="paint1_linear_14_3" x1="35.4398" y1="9.63846" x2="109.211" y2="147.814" gradientUnits="userSpaceOnUse">
<stop stop-color="#C9E8FF"/>
<stop offset="0.5765" stop-color="#C46E6E"/>
<stop offset="1" stop-color="#9C3030"/>
</linearGradient>
</defs>
</svg>
