<svg width="690" height="449" viewBox="0 0 690 449" fill="none" xmlns="http://www.w3.org/2000/svg">
<g id="Errror Bg" clip-path="url(#clip0_50_7)">
<path id="Vector" d="M211.813 420.111C216.482 410.027 221.147 399.794 223.173 388.869C225.199 377.943 224.349 366.086 218.546 356.609C212.743 347.133 201.318 340.707 190.414 342.849C181.459 344.609 174.268 351.662 170.058 359.759C165.847 367.856 164.158 376.989 162.521 385.968C161.991 375.767 161.431 365.403 158.043 355.768C154.654 346.132 147.982 337.153 138.473 333.425C128.964 329.696 116.594 332.628 111.583 341.528C104.522 354.066 113.884 371.653 105.765 383.534C104.373 371.617 91.9105 362.201 80.0664 364.118C68.2223 366.034 59.3653 378.899 61.8018 390.647C63.2516 397.638 68.0211 403.584 73.7234 407.879C79.4256 412.175 86.0576 417.154 92.6181 419.969L211.813 420.111Z" fill="#F2F2F2"/>
<path id="Vector_2" d="M68.0204 372.537C77.4287 375.826 86.9234 379.152 95.5127 384.293C103.211 388.901 110.066 395.105 114.395 403.05C116.767 407.312 118.175 412.043 118.521 416.908C118.583 417.926 120.175 417.933 120.112 416.908C119.556 407.847 115.14 399.555 109.025 392.998C102.321 385.808 93.6339 380.897 84.6644 377.087C79.3462 374.828 73.8958 372.908 68.4436 371.003C67.4747 370.664 67.0581 372.201 68.0204 372.537Z" fill="white"/>
<path id="Vector_3" d="M122.287 335.005C128.067 344.634 132.696 354.91 136.078 365.62C139.467 376.327 141.601 387.39 142.439 398.589C142.903 404.857 142.953 411.15 142.591 417.425C142.531 418.449 144.123 418.445 144.182 417.425C144.824 406.111 144.139 394.76 142.142 383.605C140.147 372.451 136.869 361.565 132.373 351.165C129.849 345.323 126.939 339.656 123.661 334.201C123.551 334.027 123.377 333.902 123.177 333.853C122.976 333.804 122.764 333.835 122.586 333.939C122.408 334.043 122.277 334.213 122.221 334.411C122.165 334.61 122.189 334.823 122.287 335.005Z" fill="white"/>
<path id="Vector_4" d="M200.188 344.147C192.012 362.517 186.258 381.872 183.072 401.725C182.177 407.302 181.484 412.906 180.994 418.537C180.905 419.557 182.497 419.551 182.585 418.537C184.319 398.728 188.6 379.226 195.323 360.512C197.213 355.251 199.292 350.063 201.563 344.95C201.975 344.022 200.604 343.212 200.188 344.147Z" fill="white"/>
<path id="Vector_5" d="M482.474 441.791L482.346 431.91L435.761 432.512L435.889 442.394L482.474 441.791Z" fill="#E6E6E6"/>
<path id="Vector_6" d="M499.026 443.996L492.373 443.977L488.261 436.64L492.706 429.327L498.887 429.345C497.339 427.376 495.214 425.941 492.809 425.24C490.404 424.54 487.84 424.61 485.477 425.44C483.114 426.27 481.07 427.819 479.631 429.87C478.193 431.92 477.432 434.37 477.456 436.874C477.479 439.379 478.286 441.814 479.763 443.836C481.241 445.859 483.314 447.369 485.692 448.155C488.071 448.94 490.635 448.961 493.027 448.215C495.418 447.47 497.516 445.994 499.026 443.996Z" fill="#E6E6E6"/>
<path id="Vector_7" d="M419.209 443.996L425.862 443.977L429.974 436.64L425.529 429.327L419.348 429.345C420.896 427.376 423.021 425.941 425.426 425.24C427.831 424.54 430.395 424.61 432.758 425.44C435.121 426.27 437.165 427.819 438.604 429.87C440.042 431.92 440.803 434.37 440.779 436.874C440.756 439.379 439.949 441.814 438.471 443.836C436.994 445.859 434.921 447.369 432.543 448.155C430.164 448.94 427.6 448.961 425.208 448.215C422.817 447.47 420.719 445.994 419.209 443.996Z" fill="#E6E6E6"/>
<path id="Vector_8" d="M689 420.969H1C0.734784 420.969 0.480429 420.864 0.292892 420.676C0.105356 420.489 0 420.234 0 419.969C0 419.704 0.105356 419.45 0.292892 419.262C0.480429 419.075 0.734784 418.969 1 418.969H689C689.265 418.969 689.52 419.075 689.707 419.262C689.895 419.45 690 419.704 690 419.969C690 420.234 689.895 420.489 689.707 420.676C689.52 420.864 689.265 420.969 689 420.969Z" fill="#3F3D56"/>
<path id="Vector_9" d="M540.486 230.969C558.712 230.969 573.486 216.195 573.486 197.969C573.486 179.744 558.712 164.969 540.486 164.969C522.261 164.969 507.486 179.744 507.486 197.969C507.486 216.195 522.261 230.969 540.486 230.969Z" fill="#2F2E41"/>
<path id="Vector_10" d="M553.859 383.226L556.401 395.219L603.871 391.124L600.12 373.423L553.859 383.226Z" fill="#FFB8B8"/>
<path id="Vector_11" d="M550.166 420.709L542.178 383.016L556.742 379.93L561.643 403.06C562.462 406.922 561.712 410.952 559.56 414.262C557.408 417.572 554.028 419.891 550.166 420.709Z" fill="#2F2E41"/>
<path id="Vector_12" d="M524.121 382.586L518.778 393.621L473.674 378.264L481.56 361.979L524.121 382.586Z" fill="#FFB8B8"/>
<path id="Vector_13" d="M511.808 399.976L522.112 378.695L535.51 385.182L518.719 419.862C516.96 419.01 515.385 417.82 514.085 416.359C512.786 414.899 511.787 413.197 511.145 411.35C510.503 409.504 510.231 407.549 510.345 405.597C510.459 403.645 510.956 401.735 511.808 399.976Z" fill="#2F2E41"/>
<path id="Vector_14" d="M435.26 360.793C436.804 361.081 438.392 361.026 439.913 360.633C441.433 360.241 442.849 359.519 444.061 358.52C445.273 357.521 446.25 356.268 446.926 354.85C447.601 353.432 447.957 351.884 447.969 350.313L522.342 281.742L503.873 267.437L436.535 339.38C433.895 339.535 431.404 340.653 429.534 342.522C427.663 344.391 426.543 346.881 426.386 349.52C426.229 352.16 427.046 354.765 428.681 356.843C430.316 358.92 432.657 360.326 435.26 360.793Z" fill="#FFB8B8"/>
<path id="Vector_15" d="M536.344 232.459C549.909 232.459 560.905 221.463 560.905 207.898C560.905 194.334 549.909 183.337 536.344 183.337C522.78 183.337 511.783 194.334 511.783 207.898C511.783 221.463 522.78 232.459 536.344 232.459Z" fill="#FFB8B8"/>
<path id="Vector_16" d="M558.385 352.273C541.157 352.273 520.407 348.644 507.607 333.796L507.318 333.461L507.615 333.133C507.712 333.026 517.129 322.264 507.726 303.072L494.798 307.05L481.928 290.061L489.057 268.672L518.235 245.168C522.416 241.819 527.505 239.802 532.845 239.379C542.51 238.444 551.924 235.763 560.63 231.466C564.614 229.53 569.002 228.571 573.43 228.667L574.004 228.683C575.35 228.721 576.675 229.032 577.898 229.598C579.121 230.163 580.216 230.971 581.118 231.972C582.019 232.973 582.708 234.147 583.142 235.422C583.577 236.697 583.747 238.048 583.644 239.391C581.666 265.021 578.172 326.934 588.436 348.252L588.701 348.803L588.109 348.953C578.353 351.148 568.385 352.261 558.385 352.273Z" fill="#654BFF"/>
<path id="Vector_17" d="M510.987 333.469C510.987 333.469 445.987 327.469 438.987 346.469C431.987 365.469 439.987 374.469 451.987 378.469C463.987 382.469 492.987 387.469 492.987 387.469L505.987 371.469L539.987 373.469C539.987 373.469 577.871 395.443 588.346 418.943C590.593 424.029 594.177 428.411 598.716 431.622C603.255 434.834 608.58 436.755 614.124 437.182C622.522 437.766 629.987 434.594 629.987 421.469C629.987 391.469 587.987 348.469 587.987 348.469L510.987 333.469Z" fill="#2F2E41"/>
<path id="Vector_18" d="M461.486 362.969C461.486 362.969 478.486 357.969 505.486 370.969Z" fill="#2F2E41"/>
<path id="Vector_19" d="M511.844 192.235C521.436 198.09 532.249 201.653 543.443 202.647L540.112 198.656C542.537 199.552 545.089 200.059 547.673 200.157C548.967 200.195 550.251 199.928 551.423 199.38C552.596 198.831 553.623 198.015 554.423 196.998C555.076 195.942 555.464 194.743 555.554 193.504C555.644 192.265 555.433 191.023 554.938 189.883C553.923 187.61 552.343 185.634 550.349 184.144C546.814 181.348 542.642 179.47 538.205 178.677C533.768 177.884 529.203 178.201 524.918 179.6C521.979 180.478 519.347 182.167 517.323 184.472C516.328 185.633 515.637 187.023 515.312 188.517C514.987 190.011 515.038 191.563 515.46 193.033" fill="#2F2E41"/>
<path id="Vector_20" d="M540.309 172.604C544.673 162.471 551.205 153.418 559.445 146.083C564.737 141.38 570.918 137.339 577.892 136.12C584.866 134.9 592.725 136.99 597.002 142.631C600.5 147.244 601.154 153.424 600.769 159.2C600.384 164.976 599.093 170.696 599.216 176.484C599.343 182.39 600.942 188.17 603.868 193.301C606.795 198.432 610.957 202.75 615.976 205.865C620.996 208.979 626.713 210.79 632.61 211.134C638.507 211.479 644.396 210.345 649.743 207.835C643.722 211.164 639.029 216.433 633.439 220.443C627.848 224.454 620.476 227.203 614.126 224.553C607.408 221.75 604.327 214.134 601.92 207.264L591.189 176.624C589.364 171.416 587.45 166.053 583.727 161.979C580.004 157.905 573.962 155.422 568.837 157.47C564.953 159.022 562.425 162.728 560.207 166.274C557.989 169.82 555.65 173.594 551.903 175.453C548.157 177.313 542.605 176.168 541.38 172.169" fill="#2F2E41"/>
<path id="Vector_21" d="M539.625 321.192L532.729 328.27L566.095 360.784L572.992 353.706L539.625 321.192Z" fill="#E6E6E6"/>
<path id="Vector_22" d="M566.51 354.289C565.146 355.689 564.227 357.462 563.871 359.384C563.514 361.305 563.736 363.29 564.507 365.086C565.278 366.882 566.565 368.409 568.204 369.473C569.843 370.538 571.761 371.093 573.715 371.068C575.67 371.042 577.573 370.438 579.184 369.331C580.795 368.224 582.041 366.665 582.766 364.849C583.49 363.034 583.66 361.045 583.254 359.133C582.848 357.221 581.884 355.472 580.484 354.108C578.607 352.279 576.08 351.271 573.46 351.305C570.839 351.338 568.339 352.412 566.51 354.289ZM576.621 364.142C576.036 364.742 575.287 365.155 574.467 365.329C573.648 365.503 572.795 365.43 572.017 365.12C571.239 364.809 570.571 364.275 570.097 363.584C569.622 362.894 569.363 362.078 569.353 361.241C569.342 360.403 569.579 359.581 570.036 358.879C570.492 358.176 571.147 357.625 571.916 357.294C572.686 356.964 573.536 356.869 574.36 357.022C575.184 357.175 575.943 357.568 576.543 358.153C577.348 358.937 577.808 360.008 577.822 361.131C577.837 362.254 577.405 363.337 576.621 364.142Z" fill="#E6E6E6"/>
<path id="Vector_23" d="M529.479 307.928L534.17 312.646L531.89 320.742L523.576 322.77L519.218 318.386C518.92 320.873 519.408 323.391 520.613 325.587C521.819 327.783 523.681 329.546 525.939 330.63C528.197 331.714 530.738 332.064 533.205 331.631C535.672 331.198 537.942 330.004 539.696 328.217C541.451 326.429 542.601 324.137 542.987 321.662C543.373 319.187 542.975 316.653 541.848 314.416C540.722 312.179 538.923 310.35 536.705 309.187C534.487 308.024 531.96 307.583 529.479 307.928Z" fill="#E6E6E6"/>
<path id="Vector_24" d="M548.736 352.359C548.312 352.359 547.889 352.335 547.468 352.289C544.999 352.002 542.7 350.89 540.943 349.133C539.185 347.376 538.074 345.076 537.788 342.607C537.612 341.067 537.764 339.508 538.233 338.03C538.702 336.553 539.478 335.191 540.51 334.035C541.542 332.878 542.807 331.953 544.222 331.319C545.636 330.685 547.169 330.358 548.719 330.357C549.209 330.36 549.699 330.397 550.185 330.467L583.763 294.722L580.258 283.037L597.863 275.146L602.797 287.206C604.45 291.291 604.742 295.8 603.629 300.065C602.517 304.329 600.059 308.121 596.62 310.878L559.659 340.279C559.698 340.637 559.718 340.997 559.719 341.357C559.718 342.904 559.391 344.434 558.76 345.846C558.128 347.258 557.207 348.522 556.055 349.554C554.049 351.367 551.44 352.367 548.736 352.359Z" fill="#FFB8B8"/>
<path id="Vector_25" d="M574.986 233.469C576.151 232.952 577.407 232.675 578.681 232.655C579.955 232.636 581.22 232.874 582.399 233.356C583.579 233.837 584.649 234.552 585.545 235.458C586.441 236.364 587.145 237.441 587.614 238.625L604.986 282.469L577.986 300.469L574.986 233.469Z" fill="#654BFF"/>
<path id="Vector_26" d="M448.486 243.707V25.2623C448.477 18.5652 445.812 12.1452 441.076 7.40962C436.341 2.67407 429.921 0.00947579 423.224 0H79.9537C73.2566 0.00947843 66.8366 2.67408 62.101 7.40962C57.3655 12.1452 54.7009 18.5652 54.6914 25.2623V243.707C54.7009 250.404 57.3655 256.824 62.101 261.56C66.8366 266.295 73.2566 268.96 79.9537 268.969H423.224C429.921 268.96 436.341 266.295 441.076 261.56C445.812 256.824 448.477 250.404 448.486 243.707ZM79.9537 265.997C74.0442 265.99 68.3787 263.639 64.2 259.461C60.0214 255.282 57.6706 249.616 57.6635 243.707V25.2623C57.6706 19.3528 60.0214 13.6873 64.2 9.50864C68.3787 5.32996 74.0442 2.97921 79.9537 2.97202H423.224C429.133 2.97921 434.799 5.32996 438.977 9.50864C443.156 13.6873 445.507 19.3528 445.514 25.2623V243.707C445.507 249.616 443.156 255.282 438.977 259.461C434.799 263.639 429.133 265.99 423.224 265.997H79.9537Z" fill="#3F3D56"/>
<path id="Vector_27" d="M445.514 39.303H57.6637C57.2696 39.303 56.8917 39.1465 56.613 38.8678C56.3343 38.5891 56.1777 38.2112 56.1777 37.817C56.1777 37.4229 56.3343 37.045 56.613 36.7663C56.8917 36.4876 57.2696 36.3311 57.6637 36.3311H445.514C445.908 36.3311 446.286 36.4876 446.565 36.7663C446.844 37.045 447 37.4229 447 37.817C447 38.2112 446.844 38.5891 446.565 38.8678C446.286 39.1465 445.908 39.303 445.514 39.303Z" fill="#3F3D56"/>
<path id="Vector_28" d="M82.9262 28.2342C87.0297 28.2342 90.3563 24.9076 90.3563 20.8041C90.3563 16.7006 87.0297 13.374 82.9262 13.374C78.8227 13.374 75.4961 16.7006 75.4961 20.8041C75.4961 24.9076 78.8227 28.2342 82.9262 28.2342Z" fill="#654BFF"/>
<path id="Vector_29" d="M108.188 28.2342C112.291 28.2342 115.618 24.9076 115.618 20.8041C115.618 16.7006 112.291 13.374 108.188 13.374C104.084 13.374 100.758 16.7006 100.758 20.8041C100.758 24.9076 104.084 28.2342 108.188 28.2342Z" fill="#654BFF"/>
<path id="Vector_30" d="M133.45 28.2342C137.553 28.2342 140.88 24.9076 140.88 20.8041C140.88 16.7006 137.553 13.374 133.45 13.374C129.346 13.374 126.02 16.7006 126.02 20.8041C126.02 24.9076 129.346 28.2342 133.45 28.2342Z" fill="#654BFF"/>
<path id="Vector_31" d="M274.808 108H264.192C262.55 108 260.975 107.262 259.814 105.95C258.652 104.637 258 102.857 258 101C258 99.1435 258.652 97.363 259.814 96.0503C260.975 94.7375 262.55 94 264.192 94H274.808C276.45 94 278.025 94.7375 279.186 96.0503C280.348 97.363 281 99.1435 281 101C281 102.857 280.348 104.637 279.186 105.95C278.025 107.262 276.45 108 274.808 108Z" fill="#CCCCCC"/>
<path id="Vector_32" d="M348.538 138H337.462C335.748 138 334.104 137.262 332.893 135.95C331.681 134.637 331 132.857 331 131C331 129.143 331.681 127.363 332.893 126.05C334.104 124.738 335.748 124 337.462 124H348.538C350.252 124 351.896 124.738 353.107 126.05C354.319 127.363 355 129.143 355 131C355 132.857 354.319 134.637 353.107 135.95C351.896 137.262 350.252 138 348.538 138Z" fill="#CCCCCC"/>
<path id="Vector_33" d="M382.538 138H371.462C369.748 138 368.104 137.262 366.893 135.95C365.681 134.637 365 132.857 365 131C365 129.143 365.681 127.363 366.893 126.05C368.104 124.738 369.748 124 371.462 124H382.538C384.252 124 385.896 124.738 387.107 126.05C388.319 127.363 389 129.143 389 131C389 132.857 388.319 134.637 387.107 135.95C385.896 137.262 384.252 138 382.538 138Z" fill="#CCCCCC"/>
<path id="Vector_34" d="M416.538 138H405.462C403.748 138 402.104 137.262 400.893 135.95C399.681 134.637 399 132.857 399 131C399 129.143 399.681 127.363 400.893 126.05C402.104 124.738 403.748 124 405.462 124H416.538C418.252 124 419.896 124.738 421.107 126.05C422.319 127.363 423 129.143 423 131C423 132.857 422.319 134.637 421.107 135.95C419.896 137.262 418.252 138 416.538 138Z" fill="#CCCCCC"/>
<path id="Vector_35" d="M349.7 109H299.3C297.629 109 296.027 108.262 294.845 106.95C293.664 105.637 293 103.857 293 102C293 100.143 293.664 98.363 294.845 97.0503C296.027 95.7375 297.629 95 299.3 95H349.7C351.371 95 352.973 95.7375 354.155 97.0503C355.336 98.363 356 100.143 356 102C356 103.857 355.336 105.637 354.155 106.95C352.973 108.262 351.371 109 349.7 109Z" fill="#CCCCCC"/>
<path id="Vector_36" d="M314.7 137H264.3C262.629 137 261.027 136.262 259.845 134.95C258.664 133.637 258 131.857 258 130C258 128.143 258.664 126.363 259.845 125.05C261.027 123.738 262.629 123 264.3 123H314.7C316.371 123 317.973 123.738 319.155 125.05C320.336 126.363 321 128.143 321 130C321 131.857 320.336 133.637 319.155 134.95C317.973 136.262 316.371 137 314.7 137Z" fill="#CCCCCC"/>
<path id="Vector_37" d="M412.737 109H374.263C372.602 109 371.009 108.262 369.834 106.95C368.66 105.637 368 103.857 368 102C368 100.143 368.66 98.363 369.834 97.0503C371.009 95.7375 372.602 95 374.263 95H412.737C414.398 95 415.991 95.7375 417.166 97.0503C418.34 98.363 419 100.143 419 102C419 103.857 418.34 105.637 417.166 106.95C415.991 108.262 414.398 109 412.737 109Z" fill="#CCCCCC"/>
<path id="Vector_38" d="M274.808 167H264.192C262.55 167 260.975 166.262 259.814 164.95C258.652 163.637 258 161.857 258 160C258 158.143 258.652 156.363 259.814 155.05C260.975 153.738 262.55 153 264.192 153H274.808C276.45 153 278.025 153.738 279.186 155.05C280.348 156.363 281 158.143 281 160C281 161.857 280.348 163.637 279.186 164.95C278.025 166.262 276.45 167 274.808 167Z" fill="#CCCCCC"/>
<path id="Vector_39" d="M349.7 168H299.3C297.629 168 296.027 167.262 294.845 165.95C293.664 164.637 293 162.857 293 161C293 159.143 293.664 157.363 294.845 156.05C296.027 154.738 297.629 154 299.3 154H349.7C351.371 154 352.973 154.738 354.155 156.05C355.336 157.363 356 159.143 356 161C356 162.857 355.336 164.637 354.155 165.95C352.973 167.262 351.371 168 349.7 168Z" fill="#CCCCCC"/>
<path id="Vector_40" d="M412.737 168H374.263C372.602 168 371.009 167.262 369.834 165.95C368.66 164.637 368 162.857 368 161C368 159.143 368.66 157.363 369.834 156.05C371.009 154.738 372.602 154 374.263 154H412.737C414.398 154 415.991 154.738 417.166 156.05C418.34 157.363 419 159.143 419 161C419 162.857 418.34 164.637 417.166 165.95C415.991 167.262 414.398 168 412.737 168Z" fill="#CCCCCC"/>
<path id="Vector_41" d="M396 191C396.002 189.144 396.655 187.365 397.816 186.053C398.977 184.74 400.551 184.002 402.192 184H412.808C414.45 184 416.025 184.738 417.186 186.05C418.348 187.363 419 189.143 419 191C419 192.857 418.348 194.637 417.186 195.95C416.025 197.262 414.45 198 412.808 198H402.192C400.551 197.998 398.977 197.26 397.816 195.947C396.655 194.635 396.002 192.856 396 191Z" fill="#CCCCCC"/>
<path id="Vector_42" d="M322 192C322.002 190.144 322.656 188.365 323.818 187.053C324.98 185.74 326.556 185.002 328.2 185H377.8C379.444 185 381.021 185.738 382.184 187.05C383.347 188.363 384 190.143 384 192C384 193.857 383.347 195.637 382.184 196.95C381.021 198.262 379.444 199 377.8 199H328.2C326.556 198.998 324.98 198.26 323.818 196.947C322.656 195.635 322.002 193.856 322 192Z" fill="#CCCCCC"/>
<path id="Vector_43" d="M258 192C258.002 190.144 258.662 188.365 259.836 187.053C261.011 185.74 262.603 185.002 264.263 185H302.737C304.398 185 305.991 185.738 307.166 187.05C308.34 188.363 309 190.143 309 192C309 193.857 308.34 195.637 307.166 196.95C305.991 198.262 304.398 199 302.737 199H264.263C262.603 198.998 261.011 198.26 259.836 196.947C258.662 195.635 258.002 193.856 258 192Z" fill="#CCCCCC"/>
<path id="Vector_44" d="M102.808 108H92.1923C90.55 108 88.975 107.262 87.8137 105.95C86.6524 104.637 86 102.857 86 101C86 99.1435 86.6524 97.363 87.8137 96.0503C88.975 94.7375 90.55 94 92.1923 94H102.808C104.45 94 106.025 94.7375 107.186 96.0503C108.348 97.363 109 99.1435 109 101C109 102.857 108.348 104.637 107.186 105.95C106.025 107.262 104.45 108 102.808 108Z" fill="#CCCCCC"/>
<path id="Vector_45" d="M176.538 138H165.462C163.748 138 162.104 137.262 160.893 135.95C159.681 134.637 159 132.857 159 131C159 129.143 159.681 127.363 160.893 126.05C162.104 124.738 163.748 124 165.462 124H176.538C178.252 124 179.896 124.738 181.107 126.05C182.319 127.363 183 129.143 183 131C183 132.857 182.319 134.637 181.107 135.95C179.896 137.262 178.252 138 176.538 138Z" fill="#CCCCCC"/>
<path id="Vector_46" d="M210.538 138H199.462C197.748 138 196.104 137.262 194.893 135.95C193.681 134.637 193 132.857 193 131C193 129.143 193.681 127.363 194.893 126.05C196.104 124.738 197.748 124 199.462 124H210.538C212.252 124 213.896 124.738 215.107 126.05C216.319 127.363 217 129.143 217 131C217 132.857 216.319 134.637 215.107 135.95C213.896 137.262 212.252 138 210.538 138Z" fill="#CCCCCC"/>
<path id="Vector_47" d="M244.538 138H233.462C231.748 138 230.104 137.262 228.893 135.95C227.681 134.637 227 132.857 227 131C227 129.143 227.681 127.363 228.893 126.05C230.104 124.738 231.748 124 233.462 124H244.538C246.252 124 247.896 124.738 249.107 126.05C250.319 127.363 251 129.143 251 131C251 132.857 250.319 134.637 249.107 135.95C247.896 137.262 246.252 138 244.538 138Z" fill="#CCCCCC"/>
<path id="Vector_48" d="M177.7 109H127.3C125.629 109 124.027 108.262 122.845 106.95C121.664 105.637 121 103.857 121 102C121 100.143 121.664 98.363 122.845 97.0503C124.027 95.7375 125.629 95 127.3 95H177.7C179.371 95 180.973 95.7375 182.155 97.0503C183.336 98.363 184 100.143 184 102C184 103.857 183.336 105.637 182.155 106.95C180.973 108.262 179.371 109 177.7 109Z" fill="#CCCCCC"/>
<path id="Vector_49" d="M142.7 137H92.3C90.6291 137 89.0267 136.262 87.8452 134.95C86.6638 133.637 86 131.857 86 130C86 128.143 86.6638 126.363 87.8452 125.05C89.0267 123.738 90.6291 123 92.3 123H142.7C144.371 123 145.973 123.738 147.155 125.05C148.336 126.363 149 128.143 149 130C149 131.857 148.336 133.637 147.155 134.95C145.973 136.262 144.371 137 142.7 137Z" fill="#CCCCCC"/>
<path id="Vector_50" d="M240.737 109H202.263C200.602 109 199.009 108.262 197.834 106.95C196.66 105.637 196 103.857 196 102C196 100.143 196.66 98.363 197.834 97.0503C199.009 95.7375 200.602 95 202.263 95H240.737C242.398 95 243.991 95.7375 245.166 97.0503C246.34 98.363 247 100.143 247 102C247 103.857 246.34 105.637 245.166 106.95C243.991 108.262 242.398 109 240.737 109Z" fill="#CCCCCC"/>
<path id="Vector_51" d="M102.808 167H92.1923C90.55 167 88.975 166.262 87.8137 164.95C86.6524 163.637 86 161.857 86 160C86 158.143 86.6524 156.363 87.8137 155.05C88.975 153.738 90.55 153 92.1923 153H102.808C104.45 153 106.025 153.738 107.186 155.05C108.348 156.363 109 158.143 109 160C109 161.857 108.348 163.637 107.186 164.95C106.025 166.262 104.45 167 102.808 167Z" fill="#CCCCCC"/>
<path id="Vector_52" d="M177.7 168H127.3C125.629 168 124.027 167.262 122.845 165.95C121.664 164.637 121 162.857 121 161C121 159.143 121.664 157.363 122.845 156.05C124.027 154.738 125.629 154 127.3 154H177.7C179.371 154 180.973 154.738 182.155 156.05C183.336 157.363 184 159.143 184 161C184 162.857 183.336 164.637 182.155 165.95C180.973 167.262 179.371 168 177.7 168Z" fill="#CCCCCC"/>
<path id="Vector_53" d="M240.737 168H202.263C200.602 168 199.009 167.262 197.834 165.95C196.66 164.637 196 162.857 196 161C196 159.143 196.66 157.363 197.834 156.05C199.009 154.738 200.602 154 202.263 154H240.737C242.398 154 243.991 154.738 245.166 156.05C246.34 157.363 247 159.143 247 161C247 162.857 246.34 164.637 245.166 165.95C243.991 167.262 242.398 168 240.737 168Z" fill="#CCCCCC"/>
<path id="Vector_54" d="M224 191C224.002 189.144 224.655 187.365 225.816 186.053C226.977 184.74 228.551 184.002 230.192 184H240.808C242.45 184 244.025 184.738 245.186 186.05C246.348 187.363 247 189.143 247 191C247 192.857 246.348 194.637 245.186 195.95C244.025 197.262 242.45 198 240.808 198H230.192C228.551 197.998 226.977 197.26 225.816 195.947C224.655 194.635 224.002 192.856 224 191Z" fill="#CCCCCC"/>
<path id="Vector_55" d="M150 192C150.002 190.144 150.656 188.365 151.818 187.053C152.98 185.74 154.556 185.002 156.2 185H205.8C207.444 185 209.021 185.738 210.184 187.05C211.347 188.363 212 190.143 212 192C212 193.857 211.347 195.637 210.184 196.95C209.021 198.262 207.444 199 205.8 199H156.2C154.556 198.998 152.98 198.26 151.818 196.947C150.656 195.635 150.002 193.856 150 192Z" fill="#CCCCCC"/>
<path id="Vector_56" d="M86 192C86.0019 190.144 86.6623 188.365 87.8365 187.053C89.0107 185.74 90.6026 185.002 92.2632 185H130.737C132.398 185 133.991 185.738 135.166 187.05C136.34 188.363 137 190.143 137 192C137 193.857 136.34 195.637 135.166 196.95C133.991 198.262 132.398 199 130.737 199H92.2632C90.6026 198.998 89.0107 198.26 87.8365 196.947C86.6623 195.635 86.0019 193.856 86 192Z" fill="#CCCCCC"/>
</g>
<defs>
<clipPath id="clip0_50_7">
<rect width="690" height="448.759" fill="white"/>
</clipPath>
</defs>
</svg>
