<svg width="25" height="25" viewBox="0 0 25 25" fill="none" xmlns="http://www.w3.org/2000/svg">
<g id="1534129544 1">
<g id="Clip path group">
<mask id="mask0_2_234" style="mask-type:luminance" maskUnits="userSpaceOnUse" x="1" y="1" width="23" height="23">
<g id="b">
<path id="Vector" d="M23.1771 10.4167H12.5V14.8437H18.6458C18.0729 17.6562 15.6771 19.2708 12.5 19.2708C8.75001 19.2708 5.72917 16.25 5.72917 12.5C5.72917 8.74999 8.75001 5.72916 12.5 5.72916C14.1146 5.72916 15.5729 6.30207 16.7188 7.23957L20.0521 3.90624C18.0208 2.13541 15.4167 1.04166 12.5 1.04166C6.14584 1.04166 1.04167 6.14582 1.04167 12.5C1.04167 18.8542 6.14584 23.9583 12.5 23.9583C18.2292 23.9583 23.4375 19.7917 23.4375 12.5C23.4375 11.8229 23.3333 11.0937 23.1771 10.4167Z" fill="white"/>
</g>
</mask>
<g mask="url(#mask0_2_234)">
<path id="Vector_2" d="M0 19.2708V5.72916L8.85417 12.5L0 19.2708Z" fill="#FBBC05"/>
</g>
</g>
<g id="Clip path group_2">
<mask id="mask1_2_234" style="mask-type:luminance" maskUnits="userSpaceOnUse" x="1" y="1" width="23" height="23">
<g id="b_2">
<path id="Vector_3" d="M23.1771 10.4167H12.5V14.8437H18.6458C18.0729 17.6562 15.6771 19.2708 12.5 19.2708C8.75001 19.2708 5.72917 16.25 5.72917 12.5C5.72917 8.74999 8.75001 5.72916 12.5 5.72916C14.1146 5.72916 15.5729 6.30207 16.7188 7.23957L20.0521 3.90624C18.0208 2.13541 15.4167 1.04166 12.5 1.04166C6.14584 1.04166 1.04167 6.14582 1.04167 12.5C1.04167 18.8542 6.14584 23.9583 12.5 23.9583C18.2292 23.9583 23.4375 19.7917 23.4375 12.5C23.4375 11.8229 23.3333 11.0937 23.1771 10.4167Z" fill="white"/>
</g>
</mask>
<g mask="url(#mask1_2_234)">
<path id="Vector_4" d="M0 5.72917L8.85417 12.5L12.5 9.32292L25 7.29167V0H0V5.72917Z" fill="#EA4335"/>
</g>
</g>
<g id="Clip path group_3">
<mask id="mask2_2_234" style="mask-type:luminance" maskUnits="userSpaceOnUse" x="1" y="1" width="23" height="23">
<g id="b_3">
<path id="Vector_5" d="M23.1771 10.4167H12.5V14.8437H18.6458C18.0729 17.6562 15.6771 19.2708 12.5 19.2708C8.75001 19.2708 5.72917 16.25 5.72917 12.5C5.72917 8.74999 8.75001 5.72916 12.5 5.72916C14.1146 5.72916 15.5729 6.30207 16.7188 7.23957L20.0521 3.90624C18.0208 2.13541 15.4167 1.04166 12.5 1.04166C6.14584 1.04166 1.04167 6.14582 1.04167 12.5C1.04167 18.8542 6.14584 23.9583 12.5 23.9583C18.2292 23.9583 23.4375 19.7917 23.4375 12.5C23.4375 11.8229 23.3333 11.0937 23.1771 10.4167Z" fill="white"/>
</g>
</mask>
<g mask="url(#mask2_2_234)">
<path id="Vector_6" d="M0 19.2708L15.625 7.29167L19.7396 7.8125L25 0V25H0V19.2708Z" fill="#34A853"/>
</g>
</g>
<g id="Clip path group_4">
<mask id="mask3_2_234" style="mask-type:luminance" maskUnits="userSpaceOnUse" x="1" y="1" width="23" height="23">
<g id="b_4">
<path id="Vector_7" d="M23.1771 10.4167H12.5V14.8437H18.6458C18.0729 17.6562 15.6771 19.2708 12.5 19.2708C8.75001 19.2708 5.72917 16.25 5.72917 12.5C5.72917 8.74999 8.75001 5.72916 12.5 5.72916C14.1146 5.72916 15.5729 6.30207 16.7188 7.23957L20.0521 3.90624C18.0208 2.13541 15.4167 1.04166 12.5 1.04166C6.14584 1.04166 1.04167 6.14582 1.04167 12.5C1.04167 18.8542 6.14584 23.9583 12.5 23.9583C18.2292 23.9583 23.4375 19.7917 23.4375 12.5C23.4375 11.8229 23.3333 11.0937 23.1771 10.4167Z" fill="white"/>
</g>
</mask>
<g mask="url(#mask3_2_234)">
<path id="Vector_8" d="M25 25L8.85418 12.5L6.77084 10.9375L25 5.72916V25Z" fill="#4285F4"/>
</g>
</g>
</g>
</svg>
